PathFileType	4	(X/Y/Z)	/Users/itak/Documents/Research/Walk-IL/dataset/trc/00241_00009.trc
DataRate	CameraRate	NumFrames	NumMarkers	Units	OrigDataRate	OrigDataStartFrame	OrigNumFrames
100.000000	100.000000	4	53	mm	100.000000	0	874
Frame#	Time	RPSI			LPSI			L3			STRN			T10			C7			CLAV			RBAK			LBAK			LSHO			LUPA			LAEL			LAOL			LWTS			LWPS			LFRA			LIFD			LHPS			LHTS			RSHO			RUPA			RAEL			RAOL			RWTS			RWPS			RFRA			RIFD			RHTS			RHPS			RBHD			LFHD			RFHD			LBHD			LHIP			RHIP			RASI			LASI			LKNE			LTHI			LANK			LTIP			LTOE			LMT1			LMT5			LHEE			RKNE			RTHI			RANK			RTIP			RTOE			RMT1			RMT5			RHEE			
		X1	Y1	Z1	X2	Y2	Z2	X3	Y3	Z3	X4	Y4	Z4	X5	Y5	Z5	X6	Y6	Z6	X7	Y7	Z7	X8	Y8	Z8	X9	Y9	Z9	X10	Y10	Z10	X11	Y11	Z11	X12	Y12	Z12	X13	Y13	Z13	X14	Y14	Z14	X15	Y15	Z15	X16	Y16	Z16	X17	Y17	Z17	X18	Y18	Z18	X19	Y19	Z19	X20	Y20	Z20	X21	Y21	Z21	X22	Y22	Z22	X23	Y23	Z23	X24	Y24	Z24	X25	Y25	Z25	X26	Y26	Z26	X27	Y27	Z27	X28	Y28	Z28	X29	Y29	Z29	X30	Y30	Z30	X31	Y31	Z31	X32	Y32	Z32	X33	Y33	Z33	X34	Y34	Z34	X35	Y35	Z35	X36	Y36	Z36	X37	Y37	Z37	X38	Y38	Z38	X39	Y39	Z39	X40	Y40	Z40	X41	Y41	Z41	X42	Y42	Z42	X43	Y43	Z43	X44	Y44	Z44	X45	Y45	Z45	X46	Y46	Z46	X47	Y47	Z47	X48	Y48	Z48	X49	Y49	Z49	X50	Y50	Z50	X51	Y51	Z51	X52	Y52	Z52	X53	Y53	Z53	

1	0	272.7756042480469	1047.0732421875	681.4881591796875	282.8779296875	1055.898803710938	801.61962890625	286.4021911621094	1129.95849609375	754.8768310546875	42.87105560302734	1315.209594726562	777.9935302734375	290.8128662109375	1256.16162109375	744.439697265625	231.5136413574219	1518.75341796875	752.547607421875	68.53447723388672	1432.589599609375	772.6411743164062	299.3528137207031	1378.561767578125	672.6588134765625	264.994140625	1480.602661132812	859.9754028320312	183.9868621826172	1482.466796875	928.1469116210938	226.2029876708984	1362.814453125	999.7653198242188	224.3348388671875	1151.697875976562	1026.531494140625	285.7633666992188	1138.202270507812	965.9710083007812	136.5496063232422	912.859619140625	987.61083984375	178.4862365722656	898.1966552734375	1060.120239257812	210.8070831298828	1043.883911132812	1043.890991210938	150.1809844970703	719.7098999023438	993.4214477539062	166.8083038330078	809.316650390625	1060.296508789062	113.6965560913086	809.8556518554688	1014.561279296875	154.8128051757812	1474.980834960938	591.2566528320312	166.8397674560547	1409.4599609375	522.8898315429688	183.3978729248047	1127.958740234375	485.2088317871094	225.7649841308594	1121.101318359375	570.323486328125	51.60123062133789	913.875244140625	539.7237548828125	97.93409729003906	900.1074829101562	470.2849426269531	155.8690948486328	1059.9072265625	475.0364074707031	33.00178909301758	720.1304321289062	540.2542114257812	8.323830604553223	794.25634765625	523.7662963867188	57.99477767944336	794.2050170898438	469.8612365722656	187.3051910400391	1671.573974609375	706.0755004882812	-9.302729606628418	1722.150756835938	807.2538452148438	-14.19745445251465	1715.012939453125	707.2205810546875	148.715576171875	1687.2509765625	839.849609375	195.5318603515625	996.0394287109375	951.1530151367188	167.0636444091797	1004.503356933594	582.9143676757812	74.32701110839844	1047.333618164062	627.8046875	90.21196746826172	1036.575805664062	909.0416259765625	124.3309631347656	510.3198547363281	928.4605712890625	142.528564453125	654.7794799804688	955.0130615234375	208.3603210449219	38.89455795288086	928.0303344726562	172.4090881347656	287.5378112792969	937.900146484375	-10.64286708831787	44.44319534301758	889.72900390625	54.34432601928711	38.54855346679688	841.7981567382812	82.15606689453125	36.94660949707031	955.753662109375	265.2271118164062	44.89706802368164	871.2239379882812	152.9042663574219	511.7989807128906	638.7637329101562	114.1512756347656	777.475830078125	591.1342163085938	219.9588317871094	33.35304260253906	682.018310546875	152.0459136962891	398.0387268066406	661.3145141601562	8.96735954284668	43.91391372680664	727.9579467773438	66.84473419189453	39.55976104736328	770.7581176757812	109.2890472412109	36.0131950378418	658.02587890625	283.2021789550781	32.55276870727539	737.967529296875	
2	0.01	272.6429443359375	1047.12353515625	681.7279663085938	282.7376708984375	1055.987915039062	801.8631591796875	286.3956909179688	1129.93115234375	755.1768188476562	42.87732315063477	1315.380004882812	778.31103515625	290.8458251953125	1256.14208984375	744.8485107421875	231.7470397949219	1518.739379882812	752.9602661132812	68.61717224121094	1432.750366210938	772.8837280273438	299.4734497070312	1378.514892578125	673.1189575195312	265.098388671875	1480.609985351562	860.4237670898438	184.0387115478516	1482.568115234375	928.5337524414062	226.1693267822266	1362.899536132812	1000.215637207031	224.0637817382812	1151.776733398438	1026.990966796875	285.420654296875	1138.204467773438	966.52294921875	136.0592498779297	913.02978515625	988.1236572265625	177.8661193847656	898.3707885742188	1060.611083984375	210.3090209960938	1043.994506835938	1044.370849609375	149.6987762451172	719.6245727539062	994.0051879882812	166.0101165771484	809.493896484375	1060.7314453125	112.9310760498047	810.0613403320312	1015.101013183594	155.0680541992188	1475.0380859375	591.6199951171875	167.0640869140625	1409.476318359375	523.275390625	183.6473236083984	1127.933227539062	485.876708984375	225.8932037353516	1121.135375976562	571.06640625	51.62507629394531	913.931396484375	540.087890625	98.21964263916016	900.09716796875	470.892822265625	156.1023406982422	1059.90283203125	475.6760559082031	33.10617065429688	720.106201171875	540.7835693359375	8.573461532592773	794.2203979492188	524.265869140625	58.34143829345703	794.1923828125	470.4552612304688	187.5743408203125	1671.635009765625	706.433349609375	-9.083658218383789	1722.3212890625	807.4990234375	-13.89151668548584	1715.199340820312	707.5421142578125	148.9266662597656	1687.354736328125	840.1844482421875	195.4269714355469	996.1614379882812	951.4609985351562	166.8751678466797	1004.575012207031	583.2385864257812	74.20563507080078	1047.450927734375	628.2388305664062	90.12628936767578	1036.635498046875	909.4414672851562	125.7365570068359	510.3339538574219	928.785400390625	143.33642578125	654.8799438476562	955.2379150390625	208.3573913574219	38.660400390625	928.1497192382812	173.16455078125	287.5677795410156	938.1461181640625	-10.62390232086182	44.44521713256836	889.7395629882812	54.29800415039062	38.57615661621094	841.8169555664062	82.2020263671875	36.89381408691406	955.8668212890625	265.2627868652344	44.85669708251953	871.3255004882812	152.5187225341797	511.8468627929688	639.1150512695312	113.8952560424805	777.5496826171875	591.3776245117188	219.9384155273438	33.43780517578125	682.0402221679688	151.7131042480469	398.05859375	661.61767578125	8.969979286193848	43.91727447509766	728.0037841796875	66.8399658203125	39.53098678588867	770.7964477539062	109.3007583618164	36.03695678710938	658.1382446289062	283.2007446289062	32.56505584716797	737.9719848632812	
3	0.02	272.493408203125	1047.176025390625	682.0482177734375	282.5636901855469	1056.082153320312	802.185546875	286.3781127929688	1129.899536132812	755.569580078125	42.891845703125	1315.569580078125	778.7127075195312	290.9068298339844	1256.114135742188	745.359619140625	232.0339660644531	1518.717529296875	753.473876953125	68.72724151611328	1432.927856445312	773.2025756835938	299.6251220703125	1378.464233398438	673.6870727539062	265.23193359375	1480.611938476562	860.974609375	184.1185913085938	1482.68310546875	929.014892578125	226.1312866210938	1362.993896484375	1000.780029296875	223.7262573242188	1151.870849609375	1027.595947265625	285.0246276855469	1138.189331054688	967.2371215820312	135.3824310302734	913.259033203125	988.7791137695312	177.0252838134766	898.5885620117188	1061.245849609375	209.6706085205078	1044.127563476562	1044.996337890625	148.8379364013672	719.6571044921875	994.7199096679688	164.9455108642578	809.713623046875	1061.306762695312	111.8979644775391	810.3336181640625	1015.743530273438	155.3645935058594	1475.099243164062	592.074462890625	167.3442840576172	1409.484985351562	523.7677612304688	183.9403228759766	1127.895263671875	486.6929016113281	226.0554351806641	1121.170654296875	571.9688720703125	51.7031135559082	913.977783203125	540.6312866210938	98.55519104003906	900.0726928710938	471.6721496582031	156.3832702636719	1059.886474609375	476.4721069335938	33.25629043579102	720.0719604492188	541.510498046875	8.839627265930176	794.1863403320312	524.9203491210938	58.74115753173828	794.163818359375	471.2303466796875	187.9180603027344	1671.696044921875	706.8934326171875	-8.803984642028809	1722.518798828125	807.8228149414062	-13.51452541351318	1715.416137695312	707.9479370117188	149.1966247558594	1687.466674804688	840.614990234375	195.3048248291016	996.2908935546875	951.8470458984375	166.6540374755859	1004.656982421875	583.6451416015625	74.08036804199219	1047.59326171875	628.7659301757812	90.00785827636719	1036.699584960938	909.9312744140625	127.47021484375	510.3351745605469	929.1909790039062	144.3145141601562	654.9781494140625	955.5418090820312	208.3475952148438	38.36646270751953	928.3123779296875	174.1403961181641	287.59716796875	938.456787109375	-10.5991907119751	44.44851303100586	889.7611694335938	54.25101852416992	38.62347793579102	841.850341796875	82.25071716308594	36.83095550537109	956.0098266601562	265.3157958984375	44.80106353759766	871.4578857421875	152.0519561767578	511.90234375	639.5443115234375	113.5985565185547	777.63720703125	591.6890258789062	219.9131011962891	33.54020309448242	682.0704956054688	151.3012542724609	398.0869140625	661.9749755859375	8.966439247131348	43.91743469238281	728.06005859375	66.82826232910156	39.49342346191406	770.8463745117188	109.311408996582	36.06862258911133	658.2748413085938	283.1982116699219	32.57662963867188	737.9804077148438	
4	0.03	272.3427734375	1047.222045898438	682.446044921875	282.364501953125	1056.168579101562	802.5829467773438	286.3436584472656	1129.865600585938	756.0460815429688	42.92179107666016	1315.757934570312	779.1843872070312	290.9969177246094	1256.076904296875	745.951171875	232.3566436767578	1518.687377929688	754.06494140625	68.86798095703125	1433.10302734375	773.5955200195312	299.7999877929688	1378.4150390625	674.3338623046875	265.3912048339844	1480.605102539062	861.5995483398438	184.230712890625	1482.799926757812	929.56787109375	226.0900115966797	1363.086791992188	1001.434936523438	223.3356781005859	1151.972900390625	1028.333862304688	284.5989379882812	1138.14794921875	968.095703125	134.5186309814453	913.543212890625	989.5535888671875	175.9673919677734	898.8401489257812	1062.007446289062	208.9112091064453	1044.274169921875	1045.75244140625	147.5169067382812	719.8532104492188	995.5401611328125	163.6172027587891	809.9647827148438	1062.014038085938	110.5931625366211	810.6768798828125	1016.458679199219	155.6811981201172	1475.156494140625	592.6002807617188	167.6655426025391	1409.47900390625	524.3486328125	184.2564544677734	1127.842895507812	487.6124877929688	226.2490997314453	1121.202026367188	572.9752197265625	51.84230422973633	914.0062866210938	541.3597412109375	98.91397094726562	900.0293579101562	472.5990295410156	156.6939239501953	1059.853271484375	477.3869934082031	33.45188903808594	720.0289916992188	542.4351196289062	9.094901084899902	794.1582641601562	525.7236938476562	59.15634918212891	794.1167602539062	472.1725463867188	188.3206481933594	1671.746826171875	707.4404296875	-8.473931312561035	1722.726928710938	808.2195434570312	-13.08536529541016	1715.64599609375	708.4232788085938	149.5146179199219	1687.572875976562	841.1282958984375	195.1691589355469	996.411376953125	952.2968139648438	166.4181365966797	1004.740112304688	584.1157836914062	73.96699523925781	1047.749389648438	629.3527221679688	89.85540008544922	1036.760009765625	910.4820556640625	129.4439697265625	510.3163146972656	929.6538696289062	145.4105529785156	655.057861328125	955.9195556640625	208.3302917480469	38.03342819213867	928.5087280273438	175.3051300048828	287.6202697753906	938.8132934570312	-10.5689697265625	44.4534797668457	889.7944946289062	54.21213150024414	38.69297790527344	841.8993530273438	82.29573822021484	36.76336669921875	956.1724243164062	265.3857421875	44.7291145324707	871.614990234375	151.5335083007812	511.9609985351562	640.0261840820312	113.2897415161133	777.7318115234375	592.0503540039062	219.8845367431641	33.65429306030273	682.1093139648438	150.8339996337891	398.1210021972656	662.3655395507812	8.957128524780273	43.91481781005859	728.1223754882812	66.80844116210938	39.44912338256836	770.9049682617188	109.3186569213867	36.10746765136719	658.4264526367188	283.193359375	32.58468627929688	737.994384765625	
